<svg width="121" height="43" viewBox="0 0 121 43" fill="none" xmlns="http://www.w3.org/2000/svg">
<path d="M12.8725 23.2117C12.1313 20.9811 10.7751 19.134 9.39556 17.5857C8.51969 16.6026 7.49482 15.5979 6.57326 14.6944C6.11003 14.2403 5.67291 13.8117 5.29393 13.4244C4.03074 12.1334 3.19695 11.1026 2.78284 10.1491C2.43255 9.34253 2.36725 8.57087 2.81914 7.54926C3.98211 4.92008 6.27313 3.35912 9.45052 2.76393C12.6915 2.15683 16.7 2.61018 20.7023 3.99253C24.6892 5.36953 28.471 7.60101 31.2608 10.3214C34.0607 13.0518 35.699 16.1034 35.8447 19.1571C36.1213 24.9539 32.7215 31.369 27.7137 35.5579C22.6852 39.7642 16.888 41.0969 12.363 38.3921C10.8557 37.4911 10.6102 36.8183 10.5449 36.4791C10.4471 35.9712 10.5643 35.2345 11.0812 33.9071C11.2052 33.5885 11.3659 33.2083 11.5431 32.7892C11.972 31.7743 12.4973 30.5312 12.8324 29.3829C13.3523 27.601 13.6278 25.4849 12.8725 23.2117Z" stroke="url(#paint0_linear_168_1475)" stroke-width="5"/>
<path d="M53.0485 27.7787C52.1245 27.7787 51.2965 27.6287 50.5645 27.3287C49.8325 27.0287 49.2445 26.5847 48.8005 25.9967C48.3685 25.4087 48.1405 24.7007 48.1165 23.8727H51.3925C51.4405 24.3407 51.6025 24.7007 51.8785 24.9527C52.1545 25.1927 52.5145 25.3127 52.9585 25.3127C53.4145 25.3127 53.7745 25.2107 54.0385 25.0067C54.3025 24.7907 54.4345 24.4967 54.4345 24.1247C54.4345 23.8127 54.3265 23.5547 54.1105 23.3507C53.9065 23.1467 53.6485 22.9787 53.3365 22.8467C53.0365 22.7147 52.6045 22.5647 52.0405 22.3967C51.2245 22.1447 50.5585 21.8927 50.0425 21.6407C49.5265 21.3887 49.0825 21.0167 48.7105 20.5247C48.3385 20.0327 48.1525 19.3907 48.1525 18.5987C48.1525 17.4227 48.5785 16.5047 49.4305 15.8447C50.2825 15.1727 51.3925 14.8367 52.7605 14.8367C54.1525 14.8367 55.2745 15.1727 56.1265 15.8447C56.9785 16.5047 57.4345 17.4287 57.4945 18.6167H54.1645C54.1405 18.2087 53.9905 17.8907 53.7145 17.6627C53.4385 17.4227 53.0845 17.3027 52.6525 17.3027C52.2805 17.3027 51.9805 17.4047 51.7525 17.6087C51.5245 17.8007 51.4105 18.0827 51.4105 18.4547C51.4105 18.8627 51.6025 19.1807 51.9865 19.4087C52.3705 19.6367 52.9705 19.8827 53.7865 20.1467C54.6025 20.4227 55.2625 20.6867 55.7665 20.9387C56.2825 21.1907 56.7265 21.5567 57.0985 22.0367C57.4705 22.5167 57.6565 23.1347 57.6565 23.8907C57.6565 24.6107 57.4705 25.2647 57.0985 25.8527C56.7385 26.4407 56.2105 26.9087 55.5145 27.2567C54.8185 27.6047 53.9965 27.7787 53.0485 27.7787ZM62.6287 17.4827V20.0387H66.7507V22.4147H62.6287V25.1867H67.2907V27.6527H59.5507V15.0167H67.2907V17.4827H62.6287ZM77.155 25.4207H72.439L71.683 27.6527H68.461L73.033 15.0167H76.597L81.169 27.6527H77.911L77.155 25.4207ZM76.363 23.0447L74.797 18.4187L73.249 23.0447H76.363ZM90.2105 21.1727C90.9425 21.3287 91.5305 21.6947 91.9745 22.2707C92.4185 22.8347 92.6405 23.4827 92.6405 24.2147C92.6405 25.2707 92.2685 26.1107 91.5245 26.7347C90.7925 27.3467 89.7665 27.6527 88.4465 27.6527H82.5605V15.0167H88.2485C89.5325 15.0167 90.5345 15.3107 91.2545 15.8987C91.9865 16.4867 92.3525 17.2847 92.3525 18.2927C92.3525 19.0367 92.1545 19.6547 91.7585 20.1467C91.3745 20.6387 90.8585 20.9807 90.2105 21.1727ZM85.6385 20.1287H87.6545C88.1585 20.1287 88.5425 20.0207 88.8065 19.8047C89.0825 19.5767 89.2205 19.2467 89.2205 18.8147C89.2205 18.3827 89.0825 18.0527 88.8065 17.8247C88.5425 17.5967 88.1585 17.4827 87.6545 17.4827H85.6385V20.1287ZM87.9065 25.1687C88.4225 25.1687 88.8185 25.0547 89.0945 24.8267C89.3825 24.5867 89.5265 24.2447 89.5265 23.8007C89.5265 23.3567 89.3765 23.0087 89.0765 22.7567C88.7885 22.5047 88.3865 22.3787 87.8705 22.3787H85.6385V25.1687H87.9065ZM97.4497 15.0167V22.5767C97.4497 23.3327 97.6357 23.9147 98.0077 24.3227C98.3797 24.7307 98.9257 24.9347 99.6457 24.9347C100.366 24.9347 100.918 24.7307 101.302 24.3227C101.686 23.9147 101.878 23.3327 101.878 22.5767V15.0167H104.956V22.5587C104.956 23.6867 104.716 24.6407 104.236 25.4207C103.756 26.2007 103.108 26.7887 102.292 27.1847C101.488 27.5807 100.588 27.7787 99.5917 27.7787C98.5957 27.7787 97.7017 27.5867 96.9097 27.2027C96.1297 26.8067 95.5117 26.2187 95.0557 25.4387C94.5997 24.6467 94.3717 23.6867 94.3717 22.5587V15.0167H97.4497ZM115.505 19.0127C115.277 18.5927 114.947 18.2747 114.515 18.0587C114.095 17.8307 113.597 17.7167 113.021 17.7167C112.025 17.7167 111.227 18.0467 110.627 18.7067C110.027 19.3547 109.727 20.2247 109.727 21.3167C109.727 22.4807 110.039 23.3927 110.663 24.0527C111.299 24.7007 112.169 25.0247 113.273 25.0247C114.029 25.0247 114.665 24.8327 115.181 24.4487C115.709 24.0647 116.093 23.5127 116.333 22.7927H112.427V20.5247H119.123V23.3867C118.895 24.1547 118.505 24.8687 117.953 25.5287C117.413 26.1887 116.723 26.7227 115.883 27.1307C115.043 27.5387 114.095 27.7427 113.039 27.7427C111.791 27.7427 110.675 27.4727 109.691 26.9327C108.719 26.3807 107.957 25.6187 107.405 24.6467C106.865 23.6747 106.595 22.5647 106.595 21.3167C106.595 20.0687 106.865 18.9587 107.405 17.9867C107.957 17.0027 108.719 16.2407 109.691 15.7007C110.663 15.1487 111.773 14.8727 113.021 14.8727C114.533 14.8727 115.805 15.2387 116.837 15.9707C117.881 16.7027 118.571 17.7167 118.907 19.0127H115.505Z" fill="#3983F2"/>
<defs>
<linearGradient id="paint0_linear_168_1475" x1="2.17963" y1="-6.73041" x2="37.7026" y2="45.4415" gradientUnits="userSpaceOnUse">
<stop stop-color="#4D6AD0"/>
<stop offset="1" stop-color="#75ACFF"/>
</linearGradient>
</defs>
</svg>
