<svg width="121" height="37" viewBox="0 0 121 37" fill="none" xmlns="http://www.w3.org/2000/svg">
<path d="M36.2451 9.74882C36.4663 9.74882 36.6457 9.57425 36.6457 9.35891C36.6457 9.14356 36.4663 8.96899 36.2451 8.96899C36.0239 8.96899 35.8445 9.14356 35.8445 9.35891C35.8445 9.57425 36.0239 9.74882 36.2451 9.74882Z" fill="#E91E63"/>
<path d="M34.8847 3.85199C35.0754 3.85199 35.23 3.70192 35.23 3.5168C35.23 3.33168 35.0754 3.18161 34.8847 3.18161C34.694 3.18161 34.5394 3.33168 34.5394 3.5168C34.5394 3.70192 34.694 3.85199 34.8847 3.85199Z" fill="#E91E63"/>
<path fill-rule="evenodd" clip-rule="evenodd" d="M11.5621 15.6247L8.53018 18.142C8.29537 17.9368 8.06746 17.7316 7.83265 17.5127L10.8645 14.9954C11.0993 15.2143 11.3272 15.4263 11.5621 15.6247ZM7.00389 10.6105L3.97893 13.1279C4.15158 13.3741 4.33806 13.6272 4.53143 13.8735L7.5633 11.363C7.36992 11.1099 7.18345 10.8636 7.00389 10.6105ZM1.72747 5.00123C1.45122 5.23381 1.27166 5.54848 1.18187 5.9384L4.21374 3.42105C4.30352 3.03114 4.48309 2.71647 4.75934 2.48389L1.72747 5.00123ZM1.11972 6.51985C1.11281 6.6977 1.12662 6.88924 1.14734 7.08762L4.17921 4.57027C4.15158 4.3719 4.14468 4.18036 4.15158 4.0025L1.11972 6.51985ZM1.2164 7.5391C1.25784 7.73064 1.29928 7.92217 1.36144 8.12055L4.3864 5.60321C4.33115 5.40483 4.28971 5.21329 4.24827 5.02175L1.2164 7.5391ZM1.48575 8.53783C1.55481 8.73621 1.63078 8.94142 1.71366 9.14664L4.74553 6.6293C4.66265 6.42408 4.58668 6.21886 4.51762 6.02048L1.48575 8.53783ZM1.88632 9.56392C1.983 9.77598 2.07969 9.98804 2.19019 10.2069L5.22206 7.68959C5.11156 7.47069 5.01487 7.25863 4.91818 7.04657L1.88632 9.56392ZM2.4181 10.6447C2.53551 10.8705 2.66673 11.1031 2.80486 11.3288L5.83672 8.81145C5.6986 8.58571 5.56738 8.35313 5.44997 8.12739L2.4181 10.6447ZM3.10183 11.8213C3.24686 12.0607 3.4057 12.3002 3.56455 12.5396L6.59642 10.0291C6.43757 9.78282 6.27873 9.5434 6.13369 9.30398L3.10183 11.8213ZM5.11847 14.6123C5.32566 14.8654 5.54666 15.1253 5.76766 15.3784L8.79953 12.8611C8.57853 12.608 8.35752 12.348 8.14343 12.0949L5.11847 14.6123ZM16.6244 21.4119C16.355 21.6444 16.0028 21.7676 15.5815 21.7949L18.6134 19.2776C19.0278 19.2502 19.3869 19.1271 19.6562 18.8945L16.6244 21.4119ZM14.9738 21.7744C14.7873 21.7539 14.5939 21.7197 14.3867 21.6718L17.4186 19.1545C17.6258 19.2023 17.8192 19.2365 18.0056 19.2639L14.9738 21.7744ZM13.9309 21.535C13.7375 21.4803 13.5442 21.405 13.3508 21.3229L16.3827 18.8056C16.576 18.8877 16.7694 18.9629 16.9559 19.0245L13.9309 21.535ZM12.9364 21.1451C12.7361 21.0561 12.5358 20.9535 12.3356 20.8441L15.3674 18.3267C15.5677 18.4362 15.768 18.5388 15.9683 18.6277L12.9364 21.1451ZM11.9281 20.6183C11.7209 20.5021 11.5137 20.3789 11.2996 20.2421L14.3315 17.7248C14.5456 17.8616 14.7528 17.9847 14.96 18.1078L11.9281 20.6183ZM10.8783 19.9685C10.6642 19.818 10.4432 19.6675 10.2291 19.5102L13.2541 16.9928C13.4751 17.1502 13.6961 17.3075 13.9102 17.4511L10.8783 19.9685ZM9.75951 19.1545C9.5316 18.9834 9.30369 18.7987 9.07578 18.614L12.1076 16.0967C12.3356 16.2814 12.5635 16.4661 12.7914 16.6371L9.75951 19.1545ZM7.15583 16.856C6.92101 16.6234 6.6862 16.3772 6.45138 16.1309L9.48325 13.6136C9.71116 13.8598 9.95288 14.1061 10.1877 14.3387L7.15583 16.856Z" fill="#1E88E5"/>
<path d="M23.6835 2.86001C24.2819 2.69502 24.5941 1.9879 24.3808 1.28062C24.1675 0.573345 23.5094 0.133735 22.911 0.298728C22.3126 0.46372 22.0004 1.17084 22.2137 1.87811C22.427 2.58539 23.085 3.025 23.6835 2.86001Z" fill="url(#paint0_linear_466_883)"/>
<path fill-rule="evenodd" clip-rule="evenodd" d="M19.8291 15.7409L19.8084 15.6794C19.8084 15.7683 19.8084 15.8572 19.8153 16.0419C19.8153 16.2266 19.8222 16.5139 19.7877 16.767C19.7532 17.027 19.6772 17.2664 19.5391 17.4648C19.394 17.6631 19.1868 17.8273 18.8692 17.9026C18.5584 17.9846 18.144 17.971 17.702 17.8889C17.26 17.8136 16.7835 17.6631 16.2448 17.4237C15.7061 17.1843 15.0983 16.8491 14.4353 16.4181C13.7723 15.9803 13.054 15.4468 12.3496 14.8653C11.6452 14.2907 10.9545 13.6682 10.2432 12.9705C9.53183 12.2727 8.80667 11.4997 8.34395 10.9935C7.88122 10.4873 7.68785 10.2479 7.49447 10.0085C7.30109 9.76906 7.11462 9.5228 6.92815 9.28338C7.38397 9.98112 7.90194 10.6994 8.48207 11.4177C8.66854 11.6571 8.86192 11.8965 9.0622 12.1222C9.25558 12.3548 9.45586 12.5806 9.66996 12.8131C9.87715 13.0389 10.0912 13.2646 10.3122 13.4972C10.5332 13.7298 10.7542 13.9487 10.9683 14.1539C12.8261 15.9667 14.7185 17.3348 16.3276 18.0804C17.7987 18.7645 18.9797 18.9355 19.5874 18.4293C20.133 17.971 20.1883 17.0064 19.8291 15.7409ZM15.9202 18.9902C16.7627 19.387 17.5501 19.6195 18.2407 19.6811L16.521 21.1108C15.8235 21.6923 14.3939 21.3981 12.6535 20.4609C8.63401 18.2993 3.97916 13.1825 2.30784 9.06448C1.58267 7.28592 1.47908 5.89728 2.17662 5.31582L3.89629 3.89298C3.86866 4.54968 4.00679 5.33635 4.29685 6.19826C4.98748 8.23677 6.48615 10.6105 8.35776 12.8063C10.4642 15.2689 13.282 17.7589 15.9202 18.9902ZM15.0431 13.8324L14.7944 13.8187C13.793 13.7435 12.84 13.3877 11.8731 12.5737C11.1824 11.9923 10.3744 11.103 9.85643 10.2684C9.33845 9.42703 8.96551 7.9563 8.99314 7.37485C9.02076 6.80024 9.35917 6.36244 9.53183 6.15722C9.70449 5.952 9.75283 5.91096 9.84952 5.79467C10.2501 5.41159 10.6852 5.0764 11.1479 4.78226C13.8759 6.7934 16.7075 9.88535 18.441 12.8747C18.5584 12.8268 18.7241 12.7995 18.9382 12.7926C19.0694 12.7858 19.2145 12.7926 19.3733 12.8063C17.2116 8.92083 13.13 4.69333 9.49039 2.73691C7.42541 1.62873 5.65049 1.35511 4.64907 2.18282L4.62835 2.20335L1.61721 4.70017C0.615791 5.52788 0.650323 7.25172 1.5067 9.36547C3.254 13.6545 8.04007 18.9218 12.2391 21.1792C14.3041 22.2874 16.079 22.561 17.0804 21.7333L20.1123 19.216C21.4107 18.1488 20.7339 15.823 20.2159 14.5507C20.1261 14.3318 20.0294 14.106 19.9258 13.8803C19.8913 13.8871 19.8498 13.894 19.8153 13.894C19.5114 13.935 19.2352 13.9555 19.028 13.976C17.9161 14.0787 16.8249 14.0308 15.8097 13.8529C15.6025 13.8324 15.3538 13.8187 15.0431 13.8324Z" fill="url(#paint1_linear_466_883)"/>
<path fill-rule="evenodd" clip-rule="evenodd" d="M29.7594 4.99449L29.7525 5.59647C31.1406 5.4665 32.5288 5.32968 33.5854 4.98081C34.649 4.63878 35.388 4.07785 35.6297 3.65373C35.8645 3.22962 35.609 2.94231 35.3466 2.88759C35.091 2.82602 34.8217 2.99704 34.6905 3.15437C34.5523 3.3117 34.5523 3.44852 34.5523 3.59217L34.649 3.63321C34.649 3.61269 34.6559 3.58533 34.6697 3.52376C34.6836 3.46904 34.7181 3.36643 34.7871 3.2775C34.8562 3.18173 34.9667 3.0928 35.0841 3.0586C35.2084 3.0244 35.3397 3.04492 35.4225 3.12701C35.5054 3.20225 35.5399 3.35275 35.4571 3.54428C35.3673 3.73582 35.167 3.98208 34.801 4.19414C34.4349 4.4062 33.8962 4.58406 33.2539 4.71403C32.6117 4.844 31.8658 4.91925 31.2649 4.96029C30.6641 4.99449 30.2083 4.99449 29.7594 4.99449Z" fill="url(#paint2_linear_466_883)"/>
<path fill-rule="evenodd" clip-rule="evenodd" d="M28.0404 6.80026L27.0528 7.66902C27.9299 7.49801 28.807 7.32015 29.8223 7.22438C30.8444 7.12177 31.9977 7.10125 32.9923 7.21754C33.9799 7.34067 34.8017 7.60062 35.4371 7.9016C36.0725 8.20259 36.5214 8.54462 36.7769 8.83877C37.0255 9.12607 37.0808 9.37233 37.0739 9.56387C37.067 9.75541 36.9979 9.89222 36.8391 9.95379C36.6802 10.0154 36.4247 10.0017 36.2728 9.87854C36.1139 9.75541 36.0587 9.52967 35.9965 9.30393L35.8446 9.35865C35.962 10.1658 36.8667 10.3095 37.212 9.83066C37.4399 9.51599 37.3501 8.85929 36.625 8.24363C35.9067 7.63482 34.5531 7.07389 33.013 6.84131C31.4798 6.60873 29.7601 6.7045 28.0404 6.80026Z" fill="url(#paint3_linear_466_883)"/>
<path fill-rule="evenodd" clip-rule="evenodd" d="M7.77096 28.1429C8.16462 28.3003 8.64806 28.4371 9.22128 28.4645C10.2849 28.5192 11.6592 28.2045 12.7228 27.8488C13.7933 27.4931 14.546 27.1032 15.2574 27.069C15.9618 27.0348 16.6179 27.3631 16.8804 27.924C17.1359 28.485 17.0047 29.2785 16.6387 29.8531C16.2795 30.4346 15.6925 30.8108 14.9742 31.0502C14.256 31.2896 13.4065 31.4059 12.9645 31.4675C12.5156 31.5359 12.4811 31.5427 12.8195 31.7001C13.151 31.8506 13.8554 32.1379 14.5322 32.3157C15.209 32.4936 15.8651 32.5551 16.3348 32.7946C16.8044 33.0408 17.0945 33.4649 17.0461 34.1832C16.9978 34.9015 16.611 35.9139 15.9826 36.4611C15.361 37.0084 14.4977 37.0973 13.5999 36.9126C12.8264 36.7553 12.0321 36.3927 11.1827 35.7497C11.1758 35.7429 11.1689 35.7429 11.1689 35.736C11.1274 35.7018 11.0515 35.6471 10.9133 35.5308C10.7821 35.4145 10.5818 35.2435 10.3263 34.9972C10.0708 34.7441 9.75307 34.4158 9.42156 34.0054C9.09006 33.5949 8.74475 33.1024 8.45468 32.603C8.17152 32.0968 7.94361 31.5838 7.76405 31.1118C7.58449 30.6466 7.44636 30.2225 7.32205 29.7642C7.19773 29.3127 7.08723 28.8338 7.10795 28.5329C7.12867 28.2319 7.28061 28.1156 7.50161 28.1087C7.58449 28.1087 7.67427 28.1224 7.77096 28.1429Z" fill="url(#paint4_linear_466_883)"/>
<path fill-rule="evenodd" clip-rule="evenodd" d="M0.028256 21.4189C0.0627875 21.6994 0.0904127 21.973 0.242351 22.2945C0.387384 22.6229 0.65673 22.9854 1.21614 23.2796C1.78246 23.5737 2.63884 23.7858 3.32256 23.9294C4.01319 24.0731 4.53117 24.1415 4.89029 24.1141C5.24942 24.0868 5.45661 23.9636 5.60855 23.8405C5.76049 23.7105 5.86408 23.5806 5.94005 23.4301C5.96077 23.4027 5.97458 23.3685 5.9884 23.3343C6.02983 23.2112 6.07818 23.088 6.12652 22.9649C6.44421 22.1782 6.87931 21.4121 7.4111 20.6665C7.56303 20.4544 7.73569 20.2423 7.90835 20.0303C7.99813 19.914 8.09482 19.7635 8.12245 19.5993C8.15698 19.3667 8.05338 19.1136 7.81166 18.8674C7.56994 18.6143 7.18319 18.3749 6.57543 17.8687C5.97458 17.3624 5.15964 16.5895 4.47592 15.7344C3.79219 14.8793 3.24659 13.9353 2.8184 13.3607C2.38331 12.7861 2.06562 12.5877 1.83771 12.6698C1.6098 12.7519 1.47858 13.1144 1.37499 13.4017C1.33355 13.5249 1.29211 13.6412 1.25067 13.7438C0.39429 16.3637 -0.130589 19.483 0.028256 21.4189Z" fill="url(#paint5_linear_466_883)"/>
<path fill-rule="evenodd" clip-rule="evenodd" d="M3.85506 25.0923C3.344 25.0854 2.6879 24.9828 2.19064 24.8118C1.7003 24.6408 1.36879 24.4014 1.14089 24.333C0.906072 24.2645 0.781758 24.3603 0.74032 24.4698C0.698883 24.5724 0.733414 24.675 0.774852 24.7844C0.781758 24.8186 0.795571 24.8528 0.809383 24.8802C1.54145 26.7751 2.83984 28.6836 4.49044 30.1612C5.29157 30.8794 6.18249 31.4951 7.10793 32.056C6.55543 30.9068 6.18249 29.7918 5.93386 28.793C5.63689 27.5891 5.50567 26.5493 5.54711 25.5848C5.55401 25.5369 5.55401 25.489 5.56092 25.4411C5.56092 25.4001 5.56092 25.3522 5.56092 25.3043C5.56092 25.2017 5.54711 25.0854 5.47114 25.0239C5.39517 24.9555 5.25704 24.9418 4.9946 24.976C4.73907 25.017 4.37304 25.1059 3.85506 25.0923Z" fill="url(#paint6_linear_466_883)"/>
<path fill-rule="evenodd" clip-rule="evenodd" d="M31.5067 12.7039C31.5067 12.7039 34.9529 12.6354 36.0855 15.4401C36.0855 15.4401 34.4695 14.113 31.9763 14.8518C31.9763 14.8518 31.258 13.901 31.5067 12.7039ZM21.2508 15.5153C21.2508 15.5153 23.9166 10.166 30.816 12.697C30.816 12.697 29.1447 18.3816 39 17.376C39 17.376 28.6475 24.9964 21.2508 15.5153Z" fill="url(#paint7_linear_466_883)"/>
<path fill-rule="evenodd" clip-rule="evenodd" d="M14.8977 13.1416C15.2085 13.1279 15.4572 13.1347 15.6643 13.1553C16.9973 13.3947 18.4545 13.4015 19.9393 13.1347C20.3261 13.0663 20.7129 12.9774 21.0996 12.8748C21.1134 12.868 21.1272 12.8611 21.141 12.8611C23.7931 12.1223 25.9409 10.6311 27.2462 8.832C28.4617 7.16289 28.959 5.23384 28.4824 3.38003C27.3636 2.72333 26.1274 2.21713 24.8152 1.88194C24.7738 2.54548 24.3939 3.10641 23.8069 3.27058C23.0196 3.48948 22.1494 2.90803 21.8662 1.97086C21.811 1.79301 21.7833 1.60831 21.7764 1.43046C20.4711 1.36205 19.1313 1.45098 17.7846 1.71776C17.384 1.79985 16.9834 1.88878 16.5829 2.00507C13.9101 2.73701 11.6173 4.08461 9.84924 5.79477C9.75255 5.91106 9.64895 6.02051 9.53155 6.15732C9.30364 6.43094 9.02048 6.80034 8.99286 7.37495C8.96523 7.9564 9.19314 8.73623 9.71111 9.57078C10.2291 10.4053 11.0371 11.3015 11.7278 11.8829C12.4184 12.4575 12.9916 12.7243 13.4681 12.8885C13.9447 13.0458 14.3176 13.1005 14.6491 13.1279C14.732 13.1347 14.8149 13.1347 14.8977 13.1416Z" fill="url(#paint8_linear_466_883)"/>
<path d="M53.688 25.126C52.764 25.126 51.936 24.976 51.204 24.676C50.472 24.376 49.884 23.932 49.44 23.344C49.008 22.756 48.78 22.048 48.756 21.22H52.032C52.08 21.688 52.242 22.048 52.518 22.3C52.794 22.54 53.154 22.66 53.598 22.66C54.054 22.66 54.414 22.558 54.678 22.354C54.942 22.138 55.074 21.844 55.074 21.472C55.074 21.16 54.966 20.902 54.75 20.698C54.546 20.494 54.288 20.326 53.976 20.194C53.676 20.062 53.244 19.912 52.68 19.744C51.864 19.492 51.198 19.24 50.682 18.988C50.166 18.736 49.722 18.364 49.35 17.872C48.978 17.38 48.792 16.738 48.792 15.946C48.792 14.77 49.218 13.852 50.07 13.192C50.922 12.52 52.032 12.184 53.4 12.184C54.792 12.184 55.914 12.52 56.766 13.192C57.618 13.852 58.074 14.776 58.134 15.964H54.804C54.78 15.556 54.63 15.238 54.354 15.01C54.078 14.77 53.724 14.65 53.292 14.65C52.92 14.65 52.62 14.752 52.392 14.956C52.164 15.148 52.05 15.43 52.05 15.802C52.05 16.21 52.242 16.528 52.626 16.756C53.01 16.984 53.61 17.23 54.426 17.494C55.242 17.77 55.902 18.034 56.406 18.286C56.922 18.538 57.366 18.904 57.738 19.384C58.11 19.864 58.296 20.482 58.296 21.238C58.296 21.958 58.11 22.612 57.738 23.2C57.378 23.788 56.85 24.256 56.154 24.604C55.458 24.952 54.636 25.126 53.688 25.126ZM63.2682 14.83V17.386H67.3902V19.762H63.2682V22.534H67.9302V25H60.1902V12.364H67.9302V14.83H63.2682ZM77.7945 22.768H73.0785L72.3225 25H69.1005L73.6725 12.364H77.2365L81.8085 25H78.5505L77.7945 22.768ZM77.0025 20.392L75.4365 15.766L73.8885 20.392H77.0025ZM90.85 18.52C91.582 18.676 92.17 19.042 92.614 19.618C93.058 20.182 93.28 20.83 93.28 21.562C93.28 22.618 92.908 23.458 92.164 24.082C91.432 24.694 90.406 25 89.086 25H83.2V12.364H88.888C90.172 12.364 91.174 12.658 91.894 13.246C92.626 13.834 92.992 14.632 92.992 15.64C92.992 16.384 92.794 17.002 92.398 17.494C92.014 17.986 91.498 18.328 90.85 18.52ZM86.278 17.476H88.294C88.798 17.476 89.182 17.368 89.446 17.152C89.722 16.924 89.86 16.594 89.86 16.162C89.86 15.73 89.722 15.4 89.446 15.172C89.182 14.944 88.798 14.83 88.294 14.83H86.278V17.476ZM88.546 22.516C89.062 22.516 89.458 22.402 89.734 22.174C90.022 21.934 90.166 21.592 90.166 21.148C90.166 20.704 90.016 20.356 89.716 20.104C89.428 19.852 89.026 19.726 88.51 19.726H86.278V22.516H88.546ZM98.0892 12.364V19.924C98.0892 20.68 98.2752 21.262 98.6472 21.67C99.0192 22.078 99.5652 22.282 100.285 22.282C101.005 22.282 101.557 22.078 101.941 21.67C102.325 21.262 102.517 20.68 102.517 19.924V12.364H105.595V19.906C105.595 21.034 105.355 21.988 104.875 22.768C104.395 23.548 103.747 24.136 102.931 24.532C102.127 24.928 101.227 25.126 100.231 25.126C99.2352 25.126 98.3412 24.934 97.5492 24.55C96.7692 24.154 96.1512 23.566 95.6952 22.786C95.2392 21.994 95.0112 21.034 95.0112 19.906V12.364H98.0892ZM116.145 16.36C115.917 15.94 115.587 15.622 115.155 15.406C114.735 15.178 114.237 15.064 113.661 15.064C112.665 15.064 111.867 15.394 111.267 16.054C110.667 16.702 110.367 17.572 110.367 18.664C110.367 19.828 110.679 20.74 111.303 21.4C111.939 22.048 112.809 22.372 113.913 22.372C114.669 22.372 115.305 22.18 115.821 21.796C116.349 21.412 116.733 20.86 116.973 20.14H113.067V17.872H119.763V20.734C119.535 21.502 119.145 22.216 118.593 22.876C118.053 23.536 117.363 24.07 116.523 24.478C115.683 24.886 114.735 25.09 113.679 25.09C112.431 25.09 111.315 24.82 110.331 24.28C109.359 23.728 108.597 22.966 108.045 21.994C107.505 21.022 107.235 19.912 107.235 18.664C107.235 17.416 107.505 16.306 108.045 15.334C108.597 14.35 109.359 13.588 110.331 13.048C111.303 12.496 112.413 12.22 113.661 12.22C115.173 12.22 116.445 12.586 117.477 13.318C118.521 14.05 119.211 15.064 119.547 16.36H116.145Z" fill="url(#paint9_linear_466_883)"/>
<defs>
<linearGradient id="paint0_linear_466_883" x1="22.911" y1="0.298728" x2="23.6219" y2="2.87698" gradientUnits="userSpaceOnUse">
<stop stop-color="#3EE4FD"/>
<stop offset="1" stop-color="#4DA0FB"/>
</linearGradient>
<linearGradient id="paint1_linear_466_883" x1="19.052" y1="20.9265" x2="-0.752856" y2="2.71896" gradientUnits="userSpaceOnUse">
<stop stop-color="#1A75C6"/>
<stop offset="1" stop-color="#7AC1FF"/>
</linearGradient>
<linearGradient id="paint2_linear_466_883" x1="23.6017" y1="26.8651" x2="0.120652" y2="4.96091" gradientUnits="userSpaceOnUse">
<stop stop-color="#E91E63"/>
<stop offset="1" stop-color="#FCC090"/>
</linearGradient>
<linearGradient id="paint3_linear_466_883" x1="23.6017" y1="26.8651" x2="0.120652" y2="4.96091" gradientUnits="userSpaceOnUse">
<stop stop-color="#E91E63"/>
<stop offset="1" stop-color="#FCC090"/>
</linearGradient>
<linearGradient id="paint4_linear_466_883" x1="23.6017" y1="26.8651" x2="0.120652" y2="4.96091" gradientUnits="userSpaceOnUse">
<stop stop-color="#E91E63"/>
<stop offset="1" stop-color="#FCC090"/>
</linearGradient>
<linearGradient id="paint5_linear_466_883" x1="23.6017" y1="26.8651" x2="0.120652" y2="4.96091" gradientUnits="userSpaceOnUse">
<stop stop-color="#E91E63"/>
<stop offset="1" stop-color="#FCC090"/>
</linearGradient>
<linearGradient id="paint6_linear_466_883" x1="23.6017" y1="26.8651" x2="0.120652" y2="4.96091" gradientUnits="userSpaceOnUse">
<stop stop-color="#E91E63"/>
<stop offset="1" stop-color="#FCC090"/>
</linearGradient>
<linearGradient id="paint7_linear_466_883" x1="23.6017" y1="26.8651" x2="0.120652" y2="4.96091" gradientUnits="userSpaceOnUse">
<stop stop-color="#E91E63"/>
<stop offset="1" stop-color="#FCC090"/>
</linearGradient>
<linearGradient id="paint8_linear_466_883" x1="23.6017" y1="26.8651" x2="0.120652" y2="4.96091" gradientUnits="userSpaceOnUse">
<stop stop-color="#E91E63"/>
<stop offset="1" stop-color="#FCC090"/>
</linearGradient>
<linearGradient id="paint9_linear_466_883" x1="114.395" y1="30.3041" x2="96.6129" y2="-15.0402" gradientUnits="userSpaceOnUse">
<stop stop-color="#1A75C6"/>
<stop offset="1" stop-color="#7AC1FF"/>
</linearGradient>
</defs>
</svg>
