<svg width="111" height="43" viewBox="0 0 111 43" fill="none" xmlns="http://www.w3.org/2000/svg">
<path d="M10.5 24C8.15275 16.9359 -2.47839 13.3455 0.532826 6.53795C6.82374 -7.68421 37.6006 3.50424 38.3419 19.0379C38.9882 32.5814 22.7184 47.4946 11.0803 40.5379C3.48853 36 12.6556 30.4871 10.5 24Z" fill="url(#paint0_linear_168_1475)"/>
<path d="M57.0205 25.6527H54.6265L50.6225 19.5907V25.6527H48.2285V15.8247H50.6225L54.6265 21.9147V15.8247H57.0205V25.6527ZM65.1538 15.8247V17.7427H61.1498V19.8147H64.1458V21.6767H61.1498V25.6527H58.7558V15.8247H65.1538ZM73.4821 15.8247V17.7427H70.8781V25.6527H68.4841V17.7427H65.8801V15.8247H73.4821Z" fill="url(#paint1_linear_168_1475)"/>
<path d="M80.0443 23.8047H83.1803V25.6527H77.6503V15.8247H80.0443V23.8047ZM83.8462 21.7327C83.8462 20.9301 83.9956 20.2254 84.2942 19.6187C84.6022 19.0121 85.0176 18.5454 85.5402 18.2187C86.0629 17.8921 86.6462 17.7287 87.2902 17.7287C87.8409 17.7287 88.3216 17.8407 88.7322 18.0647C89.1522 18.2887 89.4742 18.5827 89.6982 18.9467V17.8407H92.0922V25.6527H89.6982V24.5467C89.4649 24.9107 89.1382 25.2047 88.7182 25.4287C88.3076 25.6527 87.8269 25.7647 87.2762 25.7647C86.6416 25.7647 86.0629 25.6014 85.5402 25.2747C85.0176 24.9387 84.6022 24.4674 84.2942 23.8607C83.9956 23.2447 83.8462 22.5354 83.8462 21.7327ZM89.6982 21.7467C89.6982 21.1494 89.5302 20.6781 89.1942 20.3327C88.8676 19.9874 88.4662 19.8147 87.9902 19.8147C87.5142 19.8147 87.1082 19.9874 86.7722 20.3327C86.4456 20.6687 86.2822 21.1354 86.2822 21.7327C86.2822 22.3301 86.4456 22.8061 86.7722 23.1607C87.1082 23.5061 87.5142 23.6787 87.9902 23.6787C88.4662 23.6787 88.8676 23.5061 89.1942 23.1607C89.5302 22.8154 89.6982 22.3441 89.6982 21.7467ZM96.2182 18.9467C96.4422 18.5827 96.7642 18.2887 97.1842 18.0647C97.6042 17.8407 98.0848 17.7287 98.6262 17.7287C99.2702 17.7287 99.8535 17.8921 100.376 18.2187C100.899 18.5454 101.31 19.0121 101.608 19.6187C101.916 20.2254 102.07 20.9301 102.07 21.7327C102.07 22.5354 101.916 23.2447 101.608 23.8607C101.31 24.4674 100.899 24.9387 100.376 25.2747C99.8535 25.6014 99.2702 25.7647 98.6262 25.7647C98.0755 25.7647 97.5948 25.6574 97.1842 25.4427C96.7735 25.2187 96.4515 24.9247 96.2182 24.5607V25.6527H93.8242V15.2927H96.2182V18.9467ZM99.6342 21.7327C99.6342 21.1354 99.4662 20.6687 99.1302 20.3327C98.8035 19.9874 98.3975 19.8147 97.9122 19.8147C97.4362 19.8147 97.0302 19.9874 96.6942 20.3327C96.3675 20.6781 96.2042 21.1494 96.2042 21.7467C96.2042 22.3441 96.3675 22.8154 96.6942 23.1607C97.0302 23.5061 97.4362 23.6787 97.9122 23.6787C98.3882 23.6787 98.7942 23.5061 99.1302 23.1607C99.4662 22.8061 99.6342 22.3301 99.6342 21.7327ZM106.504 25.7647C105.823 25.7647 105.216 25.6481 104.684 25.4147C104.152 25.1814 103.732 24.8641 103.424 24.4627C103.116 24.0521 102.943 23.5947 102.906 23.0907H105.272C105.3 23.3614 105.426 23.5807 105.65 23.7487C105.874 23.9167 106.149 24.0007 106.476 24.0007C106.775 24.0007 107.003 23.9447 107.162 23.8327C107.33 23.7114 107.414 23.5574 107.414 23.3707C107.414 23.1467 107.297 22.9834 107.064 22.8807C106.831 22.7687 106.453 22.6474 105.93 22.5167C105.37 22.3861 104.903 22.2507 104.53 22.1107C104.157 21.9614 103.835 21.7327 103.564 21.4247C103.293 21.1074 103.158 20.6827 103.158 20.1507C103.158 19.7027 103.279 19.2967 103.522 18.9327C103.774 18.5594 104.138 18.2654 104.614 18.0507C105.099 17.8361 105.673 17.7287 106.336 17.7287C107.316 17.7287 108.086 17.9714 108.646 18.4567C109.215 18.9421 109.542 19.5861 109.626 20.3887H107.414C107.377 20.1181 107.255 19.9034 107.05 19.7447C106.854 19.5861 106.593 19.5067 106.266 19.5067C105.986 19.5067 105.771 19.5627 105.622 19.6747C105.473 19.7774 105.398 19.9221 105.398 20.1087C105.398 20.3327 105.515 20.5007 105.748 20.6127C105.991 20.7247 106.364 20.8367 106.868 20.9487C107.447 21.0981 107.918 21.2474 108.282 21.3967C108.646 21.5367 108.963 21.7701 109.234 22.0967C109.514 22.4141 109.659 22.8434 109.668 23.3847C109.668 23.8421 109.537 24.2527 109.276 24.6167C109.024 24.9714 108.655 25.2514 108.17 25.4567C107.694 25.6621 107.139 25.7647 106.504 25.7647Z" fill="black"/>
<defs>
<linearGradient id="paint0_linear_168_1475" x1="28.5" y1="-10.5" x2="16" y2="61.5" gradientUnits="userSpaceOnUse">
<stop stop-color="#FF7C02"/>
<stop offset="0.0885417" stop-color="#09D3FF"/>
<stop offset="0.34375" stop-color="#892CFF"/>
<stop offset="0.770833" stop-color="#0286FF"/>
</linearGradient>
<linearGradient id="paint1_linear_168_1475" x1="50.94" y1="7.31183" x2="58.4236" y2="43.6755" gradientUnits="userSpaceOnUse">
<stop stop-color="#4D6AD0"/>
<stop offset="1" stop-color="#75ACFF"/>
</linearGradient>
</defs>
</svg>
