<svg width="52" height="61" viewBox="0 0 52 61" fill="none" xmlns="http://www.w3.org/2000/svg">
<g filter="url(#filter0_d_1_36)">
<path d="M4 22C4 9.84974 13.8497 0 26 0C38.1503 0 48 9.84974 48 22C48 34.1503 38.1503 44 26 44C13.8497 44 4 34.1503 4 22Z" fill="url(#paint0_linear_1_36)"/>
<path fill-rule="evenodd" clip-rule="evenodd" d="M31.7689 18.3818H36C36 14.9846 33.9644 13 30.5156 13H21.4844C18.0356 13 16 14.9846 16 18.3385V25.6615C16 29.0154 18.0356 31 21.4844 31H30.5156C33.9644 31 36 29.0154 36 25.6615V25.3495H31.7689C29.8052 25.3495 28.2133 23.7975 28.2133 21.883C28.2133 19.9685 29.8052 18.4165 31.7689 18.4165V18.3818ZM31.7689 19.8724H35.2533C35.6657 19.8724 36 20.1983 36 20.6004V23.131C35.9952 23.5311 35.6637 23.8543 35.2533 23.8589H31.8489C30.8548 23.872 29.9855 23.2084 29.76 22.2643C29.6471 21.6783 29.8056 21.0736 30.1931 20.6122C30.5805 20.1509 31.1573 19.8801 31.7689 19.8724ZM31.92 22.533H32.2489C32.6711 22.533 33.0133 22.1993 33.0133 21.7877C33.0133 21.3761 32.6711 21.0424 32.2489 21.0424H31.92C31.7181 21.0401 31.5236 21.1166 31.38 21.255C31.2364 21.3934 31.1555 21.5821 31.1556 21.779C31.1555 22.1921 31.4964 22.5282 31.92 22.533ZM20.7378 18.3818H26.3822C26.8044 18.3818 27.1467 18.0481 27.1467 17.6365C27.1467 17.2249 26.8044 16.8912 26.3822 16.8912H20.7378C20.319 16.8912 19.9782 17.2196 19.9733 17.6278C19.9733 18.0409 20.3142 18.3771 20.7378 18.3818Z" fill="white"/>
</g>
<defs>
<filter id="filter0_d_1_36" x="0" y="0" width="52" height="61" filterUnits="userSpaceOnUse" color-interpolation-filters="sRGB">
<feFlood flood-opacity="0" result="BackgroundImageFix"/>
<feColorMatrix in="SourceAlpha" type="matrix" values="0 0 0 0 0 0 0 0 0 0 0 0 0 0 0 0 0 0 127 0" result="hardAlpha"/>
<feMorphology radius="10" operator="erode" in="SourceAlpha" result="effect1_dropShadow_1_36"/>
<feOffset dy="13"/>
<feGaussianBlur stdDeviation="7"/>
<feComposite in2="hardAlpha" operator="out"/>
<feColorMatrix type="matrix" values="0 0 0 0 0.00784314 0 0 0 0 0.523765 0 0 0 0 1 0 0 0 0.1 0"/>
<feBlend mode="normal" in2="BackgroundImageFix" result="effect1_dropShadow_1_36"/>
<feBlend mode="normal" in="SourceGraphic" in2="effect1_dropShadow_1_36" result="shape"/>
</filter>
<linearGradient id="paint0_linear_1_36" x1="6.5" y1="-7" x2="42" y2="50.5" gradientUnits="userSpaceOnUse">
<stop stop-color="#4D6AD0"/>
<stop offset="1" stop-color="#75ACFF"/>
</linearGradient>
</defs>
</svg>
