<svg width="44" height="44" viewBox="0 0 44 44" fill="none" xmlns="http://www.w3.org/2000/svg">
<path fill-rule="evenodd" clip-rule="evenodd" d="M27.7689 18.3818H32C32 14.9846 29.9644 13 26.5156 13H17.4844C14.0356 13 12 14.9846 12 18.3385V25.6615C12 29.0154 14.0356 31 17.4844 31H26.5156C29.9644 31 32 29.0154 32 25.6615V25.3495H27.7689C25.8052 25.3495 24.2133 23.7975 24.2133 21.883C24.2133 19.9685 25.8052 18.4165 27.7689 18.4165V18.3818ZM27.7689 19.8724H31.2533C31.6657 19.8724 32 20.1983 32 20.6004V23.131C31.9952 23.5311 31.6637 23.8543 31.2533 23.8589H27.8489C26.8548 23.872 25.9855 23.2084 25.76 22.2643C25.6471 21.6783 25.8056 21.0736 26.1931 20.6122C26.5805 20.1509 27.1573 19.8801 27.7689 19.8724ZM27.92 22.533H28.2489C28.6711 22.533 29.0133 22.1993 29.0133 21.7877C29.0133 21.3761 28.6711 21.0424 28.2489 21.0424H27.92C27.7181 21.0401 27.5236 21.1166 27.38 21.255C27.2364 21.3934 27.1555 21.5821 27.1556 21.779C27.1555 22.1921 27.4964 22.5282 27.92 22.533ZM16.7378 18.3818H22.3822C22.8044 18.3818 23.1467 18.0481 23.1467 17.6365C23.1467 17.2249 22.8044 16.8912 22.3822 16.8912H16.7378C16.319 16.8912 15.9782 17.2196 15.9733 17.6278C15.9733 18.0409 16.3142 18.3771 16.7378 18.3818Z" fill="#200E32"/>
<path d="M22 43C10.402 43 1 33.598 1 22H-1C-1 34.7025 9.29745 45 22 45V43ZM43 22C43 33.598 33.598 43 22 43V45C34.7025 45 45 34.7025 45 22H43ZM22 1C33.598 1 43 10.402 43 22H45C45 9.29745 34.7025 -1 22 -1V1ZM22 -1C9.29745 -1 -1 9.29745 -1 22H1C1 10.402 10.402 1 22 1V-1Z" fill="black"/>
</svg>
