<svg width="17" height="15" viewBox="0 0 17 15" fill="none" xmlns="http://www.w3.org/2000/svg">
<path d="M16.126 3.26212C15.8773 2.68625 15.5187 2.16441 15.0702 1.72579C14.6214 1.28587 14.0923 0.936275 13.5116 0.696009C12.9095 0.445879 12.2636 0.317848 11.6116 0.319349C10.6969 0.319349 9.8044 0.569837 9.02881 1.04298C8.84326 1.15617 8.66699 1.28048 8.5 1.41593C8.33301 1.28048 8.15674 1.15617 7.97119 1.04298C7.19561 0.569837 6.30313 0.319349 5.38838 0.319349C4.72969 0.319349 4.09141 0.445521 3.48838 0.696009C2.90576 0.93722 2.38066 1.28419 1.92979 1.72579C1.48076 2.16391 1.12206 2.68588 0.874023 3.26212C0.616113 3.86144 0.484375 4.49786 0.484375 5.15284C0.484375 5.77072 0.610547 6.41456 0.861035 7.06954C1.0707 7.61691 1.37129 8.18468 1.75537 8.75802C2.36397 9.66534 3.20078 10.6116 4.23984 11.5709C5.96172 13.161 7.6669 14.2595 7.73926 14.304L8.179 14.586C8.37383 14.7104 8.62432 14.7104 8.81914 14.586L9.25889 14.304C9.33125 14.2576 11.0346 13.161 12.7583 11.5709C13.7974 10.6116 14.6342 9.66534 15.2428 8.75802C15.6269 8.18468 15.9293 7.61691 16.1371 7.06954C16.3876 6.41456 16.5138 5.77072 16.5138 5.15284C16.5156 4.49786 16.3839 3.86144 16.126 3.26212Z" fill="#8A8A8A"/>
</svg>
