<svg width="62" height="63" viewBox="0 0 62 63" fill="none" xmlns="http://www.w3.org/2000/svg">
<g filter="url(#filter0_d_310_7165)">
<rect x="9" width="44" height="44" rx="15" fill="white"/>
</g>
<path d="M30.997 25.6682C28.9772 25.6682 27.3289 24.0199 27.3289 22C27.3289 19.9801 28.9772 18.3318 30.997 18.3318C33.0169 18.3318 34.6652 19.9801 34.6652 22C34.6652 24.0199 33.0169 25.6682 30.997 25.6682ZM41.9988 22C41.9988 23.519 42.0125 25.0243 41.9272 26.5406C41.8419 28.3018 41.4402 29.8648 40.1523 31.1527C38.8617 32.4433 37.3014 32.8423 35.5403 32.9276C34.0213 33.0129 32.516 32.9992 30.9998 32.9992C29.4808 32.9992 27.9756 33.0129 26.4593 32.9276C24.6982 32.8423 23.1351 32.4406 21.8473 31.1527C20.5567 29.8621 20.1577 28.3018 20.0724 26.5406C19.9871 25.0215 20.0008 23.5163 20.0008 22C20.0008 20.4837 19.9871 18.9757 20.0724 17.4594C20.1577 15.6982 20.5594 14.1352 21.8473 12.8473C23.1379 11.5567 24.6982 11.1577 26.4593 11.0724C27.9783 10.9871 29.4835 11.0008 30.9998 11.0008C32.5188 11.0008 34.024 10.9871 35.5403 11.0724C37.3014 11.1577 38.8645 11.5594 40.1523 12.8473C41.4429 14.1379 41.8419 15.6982 41.9272 17.4594C42.0153 18.9757 41.9988 20.481 41.9988 22ZM30.997 16.3559C27.8737 16.3559 25.3531 18.8766 25.3531 22C25.3531 25.1234 27.8737 27.6441 30.997 27.6441C34.1203 27.6441 36.641 25.1234 36.641 22C36.641 18.8766 34.1203 16.3559 30.997 16.3559ZM36.8722 26.5571C36.1429 26.5571 35.554 27.146 35.554 27.8752C35.554 28.6045 36.1429 29.1934 36.8722 29.1934C37.6014 29.1934 38.1903 28.6045 38.1903 27.8752C38.1905 27.7021 38.1565 27.5306 38.0904 27.3705C38.0242 27.2105 37.9271 27.0651 37.8047 26.9427C37.6822 26.8202 37.5369 26.7231 37.3768 26.657C37.2168 26.5908 37.0453 26.5569 36.8722 26.5571Z" fill="#3983F2"/>
<defs>
<filter id="filter0_d_310_7165" x="0" y="0" width="62" height="63" filterUnits="userSpaceOnUse" color-interpolation-filters="sRGB">
<feFlood flood-opacity="0" result="BackgroundImageFix"/>
<feColorMatrix in="SourceAlpha" type="matrix" values="0 0 0 0 0 0 0 0 0 0 0 0 0 0 0 0 0 0 127 0" result="hardAlpha"/>
<feMorphology radius="11" operator="erode" in="SourceAlpha" result="effect1_dropShadow_310_7165"/>
<feOffset dy="10"/>
<feGaussianBlur stdDeviation="10"/>
<feComposite in2="hardAlpha" operator="out"/>
<feColorMatrix type="matrix" values="0 0 0 0 0 0 0 0 0 0 0 0 0 0 0 0 0 0 0.25 0"/>
<feBlend mode="normal" in2="BackgroundImageFix" result="effect1_dropShadow_310_7165"/>
<feBlend mode="normal" in="SourceGraphic" in2="effect1_dropShadow_310_7165" result="shape"/>
</filter>
</defs>
</svg>
