<svg width="62" height="63" viewBox="0 0 62 63" fill="none" xmlns="http://www.w3.org/2000/svg">
<g filter="url(#filter0_d_310_7169)">
<rect x="9" width="44" height="44" rx="15" fill="white"/>
</g>
<g clip-path="url(#clip0_310_7169)">
<path d="M38.6239 15.1176C37.2214 14.4851 35.7181 14.0176 34.146 13.7517C34.132 13.749 34.1175 13.7508 34.1045 13.7567C34.0916 13.7626 34.0808 13.7724 34.0736 13.7847C33.8811 14.123 33.6666 14.5639 33.5163 14.9122C31.8489 14.6631 30.1538 14.6631 28.4865 14.9122C28.3191 14.5262 28.1302 14.1498 27.9209 13.7847C27.9138 13.7722 27.9031 13.7622 27.8902 13.756C27.8772 13.7498 27.8627 13.7476 27.8485 13.7499C26.2773 14.0157 24.774 14.4832 23.3706 15.1166C23.3585 15.1217 23.3483 15.1303 23.3413 15.1414C20.4886 19.3351 19.7067 23.4253 20.0908 27.4641C20.0918 27.474 20.0949 27.4836 20.0998 27.4923C20.1047 27.5009 20.1113 27.5085 20.1192 27.5146C21.7842 28.7268 23.6413 29.6502 25.6128 30.2462C25.6265 30.2505 25.6412 30.2504 25.6549 30.2462C25.6687 30.2419 25.6808 30.2336 25.6898 30.2224C26.1133 29.6541 26.4909 29.0536 26.8136 28.423C26.8328 28.3863 26.8145 28.3423 26.776 28.3276C26.1839 28.1046 25.6101 27.8355 25.06 27.5228C25.0501 27.5172 25.0418 27.5092 25.0358 27.4995C25.0297 27.4899 25.0262 27.4789 25.0255 27.4675C25.0248 27.4561 25.0269 27.4448 25.0316 27.4344C25.0364 27.4241 25.0436 27.4151 25.0527 27.4082C25.1682 27.323 25.2837 27.2341 25.3937 27.1451C25.4036 27.1371 25.4155 27.1321 25.4281 27.1304C25.4408 27.1288 25.4536 27.1307 25.4652 27.136C29.0649 28.753 32.9635 28.753 36.5211 27.136C36.5327 27.1304 36.5457 27.1283 36.5585 27.1297C36.5713 27.1312 36.5834 27.1362 36.5935 27.1442C36.7035 27.2341 36.8181 27.323 36.9345 27.4082C36.9437 27.4149 36.951 27.4238 36.9559 27.4341C36.9608 27.4443 36.9631 27.4556 36.9626 27.467C36.962 27.4783 36.9587 27.4894 36.9528 27.4991C36.947 27.5089 36.9388 27.517 36.929 27.5228C36.3808 27.8381 35.8107 28.1049 35.2121 28.3267C35.2029 28.3301 35.1945 28.3353 35.1875 28.3422C35.1805 28.349 35.1751 28.3572 35.1715 28.3663C35.168 28.3755 35.1664 28.3852 35.1669 28.395C35.1674 28.4047 35.17 28.4143 35.1745 28.423C35.5045 29.0527 35.8822 29.6522 36.2974 30.2215C36.3061 30.2332 36.3181 30.2419 36.3319 30.2465C36.3457 30.2511 36.3605 30.2513 36.3744 30.2471C38.3493 29.6528 40.2094 28.7289 41.8763 27.5146C41.8844 27.5089 41.8912 27.5015 41.8963 27.493C41.9013 27.4844 41.9045 27.4749 41.9056 27.4651C42.3639 22.7956 41.1374 18.7384 38.6523 15.1432C38.6463 15.1315 38.6362 15.1224 38.6239 15.1176ZM27.3517 25.0047C26.2682 25.0047 25.3744 24.0248 25.3744 22.8231C25.3744 21.6204 26.2508 20.6414 27.3517 20.6414C28.4608 20.6414 29.3463 21.6286 29.3289 22.8231C29.3289 24.0257 28.4526 25.0047 27.3517 25.0047ZM34.6621 25.0047C33.5777 25.0047 32.6848 24.0248 32.6848 22.8231C32.6848 21.6204 33.5603 20.6414 34.6621 20.6414C35.7713 20.6414 36.6568 21.6286 36.6393 22.8231C36.6393 24.0257 35.7722 25.0047 34.6621 25.0047Z" fill="#3983F2"/>
</g>
<defs>
<filter id="filter0_d_310_7169" x="0" y="0" width="62" height="63" filterUnits="userSpaceOnUse" color-interpolation-filters="sRGB">
<feFlood flood-opacity="0" result="BackgroundImageFix"/>
<feColorMatrix in="SourceAlpha" type="matrix" values="0 0 0 0 0 0 0 0 0 0 0 0 0 0 0 0 0 0 127 0" result="hardAlpha"/>
<feMorphology radius="11" operator="erode" in="SourceAlpha" result="effect1_dropShadow_310_7169"/>
<feOffset dy="10"/>
<feGaussianBlur stdDeviation="10"/>
<feComposite in2="hardAlpha" operator="out"/>
<feColorMatrix type="matrix" values="0 0 0 0 0 0 0 0 0 0 0 0 0 0 0 0 0 0 0.25 0"/>
<feBlend mode="normal" in2="BackgroundImageFix" result="effect1_dropShadow_310_7169"/>
<feBlend mode="normal" in="SourceGraphic" in2="effect1_dropShadow_310_7169" result="shape"/>
</filter>
<clipPath id="clip0_310_7169">
<rect width="22" height="22" fill="white" transform="translate(20 11)"/>
</clipPath>
</defs>
</svg>
