<svg width="18" height="20" viewBox="0 0 18 20" fill="none" xmlns="http://www.w3.org/2000/svg">
<path d="M16.471 11.7H10.6864V17.8167C10.6864 18.8016 9.93138 19.6 9 19.6C8.06862 19.6 7.31358 18.8016 7.31358 17.8167V11.7H1.52898C0.660201 11.6049 0 10.8307 0 9.90716C0 8.98359 0.660201 8.20946 1.52898 8.11433H7.29545V2.01676C7.38541 1.0981 8.11751 0.399994 8.99093 0.399994C9.86435 0.399994 10.5965 1.0981 10.6864 2.01676V8.11433H16.471C17.3398 8.20946 18 8.98359 18 9.90716C18 10.8307 17.3398 11.6049 16.471 11.7Z" fill="white"/>
</svg>
