<svg width="14" height="14" viewBox="0 0 14 14" fill="none" xmlns="http://www.w3.org/2000/svg">
<path d="M5.83332 10.5C6.86873 10.4998 7.87429 10.1532 8.68991 9.51532L11.2542 12.0797L12.0791 11.2548L9.51474 8.69049C10.1529 7.87479 10.4997 6.86899 10.5 5.83332C10.5 3.26024 8.40641 1.16666 5.83332 1.16666C3.26024 1.16666 1.16666 3.26024 1.16666 5.83332C1.16666 8.40641 3.26024 10.5 5.83332 10.5ZM5.83332 2.33332C7.76357 2.33332 9.33332 3.90307 9.33332 5.83332C9.33332 7.76357 7.76357 9.33332 5.83332 9.33332C3.90307 9.33332 2.33332 7.76357 2.33332 5.83332C2.33332 3.90307 3.90307 2.33332 5.83332 2.33332Z" fill="#C1C1C1"/>
</svg>
